<?xml version="1.0" encoding="UTF-8" standalone="yes"?><svg xmlns="http://www.w3.org/2000/svg" xmlns:xlink="http://www.w3.org/1999/xlink" height="1470pt" style="width:1328px;height:1470px;" version="1.1" viewBox="0 0 1328 1470" width="1328pt"><defs><filter height="300%" id="f1" width="300%" x="-1" y="-1"><feGaussianBlur result="blurOut" stdDeviation="2"/><feColorMatrix in="blurOut" result="blurOut2" type="matrix" values="0 0 0 0 0 0 0 0 0 0 0 0 0 0 0 0 0 0 .4 0"/><feOffset dx="4" dy="4" in="blurOut2" result="blurOut3"/><feBlend in="SourceGraphic" in2="blurOut3" mode="normal"/></filter></defs><g><rect fill="#FEFECE" filter="url(#f1)" height="46.7031" style="stroke: #A80036; stroke-width: 1.5;" width="107" x="335" y="487.9219"/><text fill="#000000" font-size="13" font-style="italic" lengthAdjust="spacingAndGlyphs" textLength="93" x="342" y="507.9219">&lt;&lt; boundary &gt;&gt;</text><text fill="#000000" font-size="13" lengthAdjust="spacingAndGlyphs" textLength="46" x="365.5" y="524.2734">DlgSDA</text><rect fill="#FEFECE" filter="url(#f1)" height="46.7031" style="stroke: #A80036; stroke-width: 1.5;" width="93" x="586" y="549.625"/><text fill="#000000" font-size="13" font-style="italic" lengthAdjust="spacingAndGlyphs" textLength="79" x="593" y="569.625">&lt;&lt; control &gt;&gt;</text><text fill="#000000" font-size="13" lengthAdjust="spacingAndGlyphs" textLength="47" x="609" y="585.9766">CtrlSDA</text><rect fill="#FEFECE" filter="url(#f1)" height="30.3516" style="stroke: #A80036; stroke-width: 1.5;" width="109" x="1063.5" y="611.3281"/><text fill="#000000" font-size="13" lengthAdjust="spacingAndGlyphs" textLength="95" x="1070.5" y="631.3281">DossierAccident</text><rect fill="#FFFFFF" filter="url(#f1)" height="249.8125" style="stroke: #000000; stroke-width: 2.0;" width="1309.5" x="10" y="1027.8984"/><rect fill="#FFFFFF" filter="url(#f1)" height="126.4063" style="stroke: #000000; stroke-width: 2.0;" width="733.5" x="576" y="1144.3047"/><rect fill="#FFFFFF" height="77.7031" style="stroke: none; stroke-width: 1.0;" width="733.5" x="576" y="1193.0078"/><rect fill="#FEFECE" filter="url(#f1)" height="30.3516" style="stroke: #A80036; stroke-width: 1.5;" width="109" x="1186.5" y="1195.0078"/><text fill="#000000" font-size="13" lengthAdjust="spacingAndGlyphs" textLength="95" x="1193.5" y="1215.0078">VehiculeExterne</text><line style="stroke: #A80036; stroke-width: 1.0; stroke-dasharray: 5.0,5.0;" x1="51" x2="51" y1="83.3516" y2="1385.7656"/><line style="stroke: #A80036; stroke-width: 1.0; stroke-dasharray: 5.0,5.0;" x1="269" x2="269" y1="83.3516" y2="1385.7656"/><line style="stroke: #A80036; stroke-width: 1.0; stroke-dasharray: 5.0,5.0;" x1="390" x2="390" y1="528.7734" y2="1385.7656"/><line style="stroke: #A80036; stroke-width: 1.0; stroke-dasharray: 5.0,5.0;" x1="634" x2="634" y1="590.4766" y2="1385.7656"/><line style="stroke: #A80036; stroke-width: 1.0; stroke-dasharray: 5.0,5.0;" x1="741" x2="741" y1="83.3516" y2="1385.7656"/><line style="stroke: #A80036; stroke-width: 1.0; stroke-dasharray: 5.0,5.0;" x1="896.5" x2="896.5" y1="83.3516" y2="1385.7656"/><line style="stroke: #A80036; stroke-width: 1.0; stroke-dasharray: 5.0,5.0;" x1="988.5" x2="988.5" y1="83.3516" y2="1385.7656"/><line style="stroke: #A80036; stroke-width: 1.0; stroke-dasharray: 5.0,5.0;" x1="1119.5" x2="1119.5" y1="644.0039" y2="1385.7656"/><line style="stroke: #A80036; stroke-width: 1.0; stroke-dasharray: 5.0,5.0;" x1="1242.5" x2="1242.5" y1="1227.6836" y2="1385.7656"/><text fill="#000000" font-size="13" lengthAdjust="spacingAndGlyphs" textLength="57" x="20" y="80">EmpDoss</text><ellipse cx="51.5" cy="10" fill="#FEFECE" filter="url(#f1)" rx="8" ry="8" style="stroke: #A80036; stroke-width: 2.0;"/><path d="M51.5,18 L51.5,45 M38.5,26 L64.5,26 M51.5,45 L38.5,60 M51.5,45 L64.5,60 " fill="#FEFECE" filter="url(#f1)" style="stroke: #A80036; stroke-width: 2.0;"/><text fill="#000000" font-size="13" lengthAdjust="spacingAndGlyphs" textLength="57" x="20" y="1397.6484">EmpDoss</text><ellipse cx="51.5" cy="1411" fill="#FEFECE" filter="url(#f1)" rx="8" ry="8" style="stroke: #A80036; stroke-width: 2.0;"/><path d="M51.5,1419 L51.5,1446 M38.5,1427 L64.5,1427 M51.5,1446 L38.5,1461 M51.5,1446 L64.5,1461 " fill="#FEFECE" filter="url(#f1)" style="stroke: #A80036; stroke-width: 2.0;"/><rect fill="#FEFECE" filter="url(#f1)" height="46.7031" style="stroke: #A80036; stroke-width: 1.5;" width="107" x="214" y="31.6484"/><text fill="#000000" font-size="13" font-style="italic" lengthAdjust="spacingAndGlyphs" textLength="93" x="221" y="51.6484">&lt;&lt; boundary &gt;&gt;</text><text fill="#000000" font-size="13" lengthAdjust="spacingAndGlyphs" textLength="64" x="235.5" y="68">DlgGeneral</text><rect fill="#FEFECE" filter="url(#f1)" height="46.7031" style="stroke: #A80036; stroke-width: 1.5;" width="107" x="214" y="1384.6484"/><text fill="#000000" font-size="13" font-style="italic" lengthAdjust="spacingAndGlyphs" textLength="93" x="221" y="1404.6484">&lt;&lt; boundary &gt;&gt;</text><text fill="#000000" font-size="13" lengthAdjust="spacingAndGlyphs" textLength="64" x="235.5" y="1421">DlgGeneral</text><rect fill="#FEFECE" filter="url(#f1)" height="46.7031" style="stroke: #A80036; stroke-width: 1.5;" width="107" x="335" y="1384.6484"/><text fill="#000000" font-size="13" font-style="italic" lengthAdjust="spacingAndGlyphs" textLength="93" x="342" y="1404.6484">&lt;&lt; boundary &gt;&gt;</text><text fill="#000000" font-size="13" lengthAdjust="spacingAndGlyphs" textLength="46" x="365.5" y="1421">DlgSDA</text><rect fill="#FEFECE" filter="url(#f1)" height="46.7031" style="stroke: #A80036; stroke-width: 1.5;" width="93" x="586" y="1384.6484"/><text fill="#000000" font-size="13" font-style="italic" lengthAdjust="spacingAndGlyphs" textLength="79" x="593" y="1404.6484">&lt;&lt; control &gt;&gt;</text><text fill="#000000" font-size="13" lengthAdjust="spacingAndGlyphs" textLength="47" x="609" y="1421">CtrlSDA</text><rect fill="#FEFECE" filter="url(#f1)" height="46.7031" style="stroke: #A80036; stroke-width: 1.5;" width="93" x="693" y="31.6484"/><text fill="#000000" font-size="13" font-style="italic" lengthAdjust="spacingAndGlyphs" textLength="79" x="700" y="51.6484">&lt;&lt; control &gt;&gt;</text><text fill="#000000" font-size="13" lengthAdjust="spacingAndGlyphs" textLength="44" x="717.5" y="68">CtrlGen</text><rect fill="#FEFECE" filter="url(#f1)" height="46.7031" style="stroke: #A80036; stroke-width: 1.5;" width="93" x="693" y="1384.6484"/><text fill="#000000" font-size="13" font-style="italic" lengthAdjust="spacingAndGlyphs" textLength="79" x="700" y="1404.6484">&lt;&lt; control &gt;&gt;</text><text fill="#000000" font-size="13" lengthAdjust="spacingAndGlyphs" textLength="44" x="717.5" y="1421">CtrlGen</text><rect fill="#FEFECE" filter="url(#f1)" height="30.3516" style="stroke: #A80036; stroke-width: 1.5;" width="32" x="878.5" y="48"/><text fill="#000000" font-size="13" lengthAdjust="spacingAndGlyphs" textLength="18" x="885.5" y="68">BD</text><rect fill="#FEFECE" filter="url(#f1)" height="30.3516" style="stroke: #A80036; stroke-width: 1.5;" width="32" x="878.5" y="1384.6484"/><text fill="#000000" font-size="13" lengthAdjust="spacingAndGlyphs" textLength="18" x="885.5" y="1404.6484">BD</text><rect fill="#FEFECE" filter="url(#f1)" height="30.3516" style="stroke: #A80036; stroke-width: 1.5;" width="125" x="924.5" y="48"/><text fill="#000000" font-size="13" lengthAdjust="spacingAndGlyphs" textLength="111" x="931.5" y="68">numImm:Vehicules</text><rect fill="#FEFECE" filter="url(#f1)" height="30.3516" style="stroke: #A80036; stroke-width: 1.5;" width="125" x="924.5" y="1384.6484"/><text fill="#000000" font-size="13" lengthAdjust="spacingAndGlyphs" textLength="111" x="931.5" y="1404.6484">numImm:Vehicules</text><rect fill="#FEFECE" filter="url(#f1)" height="30.3516" style="stroke: #A80036; stroke-width: 1.5;" width="109" x="1063.5" y="1384.6484"/><text fill="#000000" font-size="13" lengthAdjust="spacingAndGlyphs" textLength="95" x="1070.5" y="1404.6484">DossierAccident</text><rect fill="#FEFECE" filter="url(#f1)" height="30.3516" style="stroke: #A80036; stroke-width: 1.5;" width="109" x="1186.5" y="1384.6484"/><text fill="#000000" font-size="13" lengthAdjust="spacingAndGlyphs" textLength="95" x="1193.5" y="1404.6484">VehiculeExterne</text><line style="stroke: #A80036; stroke-width: 1.0;" x1="51.5" x2="263.5" y1="115.3516" y2="115.3516"/><polygon fill="#A80036" points="257.5,111.3516,267.5,115.3516,257.5,119.3516,261.5,115.3516" style="stroke: #A80036; stroke-width: 1.0;"/><text fill="#000000" font-size="13" lengthAdjust="spacingAndGlyphs" textLength="194" x="58.5" y="110.3516">demandeListeVehiculesAssures()</text><line style="stroke: #A80036; stroke-width: 1.0;" x1="269.5" x2="735.5" y1="145.7031" y2="145.7031"/><polygon fill="#A80036" points="729.5,141.7031,739.5,145.7031,729.5,149.7031,733.5,145.7031" style="stroke: #A80036; stroke-width: 1.0;"/><text fill="#000000" font-size="13" lengthAdjust="spacingAndGlyphs" textLength="194" x="276.5" y="140.7031">demandeListeVehiculesAssures()</text><line style="stroke: #A80036; stroke-width: 1.0;" x1="741.5" x2="890.5" y1="176.0547" y2="176.0547"/><polygon fill="#A80036" points="884.5,172.0547,894.5,176.0547,884.5,180.0547,888.5,176.0547" style="stroke: #A80036; stroke-width: 1.0;"/><text fill="#000000" font-size="13" lengthAdjust="spacingAndGlyphs" textLength="131" x="748.5" y="171.0547">demandeListeVehicule</text><line style="stroke: #A80036; stroke-width: 1.0; stroke-dasharray: 2.0,2.0;" x1="746.5" x2="895.5" y1="206.4063" y2="206.4063"/><polygon fill="#A80036" points="753.5,202.4063,743.5,206.4063,753.5,210.4063,749.5,206.4063" style="stroke: #A80036; stroke-width: 1.0;"/><text fill="#000000" font-size="13" lengthAdjust="spacingAndGlyphs" textLength="81" x="758.5" y="201.4063">listeVehicules</text><line style="stroke: #A80036; stroke-width: 1.0; stroke-dasharray: 2.0,2.0;" x1="274.5" x2="740.5" y1="236.7578" y2="236.7578"/><polygon fill="#A80036" points="281.5,232.7578,271.5,236.7578,281.5,240.7578,277.5,236.7578" style="stroke: #A80036; stroke-width: 1.0;"/><text fill="#000000" font-size="13" lengthAdjust="spacingAndGlyphs" textLength="81" x="286.5" y="231.7578">listeVehicules</text><line style="stroke: #A80036; stroke-width: 1.0; stroke-dasharray: 2.0,2.0;" x1="56.5" x2="268.5" y1="267.1094" y2="267.1094"/><polygon fill="#A80036" points="63.5,263.1094,53.5,267.1094,63.5,271.1094,59.5,267.1094" style="stroke: #A80036; stroke-width: 1.0;"/><text fill="#000000" font-size="13" lengthAdjust="spacingAndGlyphs" textLength="81" x="68.5" y="262.1094">listeVehicules</text><line style="stroke: #A80036; stroke-width: 1.0;" x1="51.5" x2="263.5" y1="297.4609" y2="297.4609"/><polygon fill="#A80036" points="257.5,293.4609,267.5,297.4609,257.5,301.4609,261.5,297.4609" style="stroke: #A80036; stroke-width: 1.0;"/><text fill="#000000" font-size="13" lengthAdjust="spacingAndGlyphs" textLength="139" x="58.5" y="292.4609">choixVehicule(numImm)</text><line style="stroke: #A80036; stroke-width: 1.0;" x1="269.5" x2="735.5" y1="327.8125" y2="327.8125"/><polygon fill="#A80036" points="729.5,323.8125,739.5,327.8125,729.5,331.8125,733.5,327.8125" style="stroke: #A80036; stroke-width: 1.0;"/><text fill="#000000" font-size="13" lengthAdjust="spacingAndGlyphs" textLength="139" x="276.5" y="322.8125">choixVehicule(numImm)</text><line style="stroke: #A80036; stroke-width: 1.0;" x1="741.5" x2="983" y1="358.1641" y2="358.1641"/><polygon fill="#A80036" points="977,354.1641,987,358.1641,977,362.1641,981,358.1641" style="stroke: #A80036; stroke-width: 1.0;"/><text fill="#000000" font-size="13" lengthAdjust="spacingAndGlyphs" textLength="66" x="748.5" y="353.1641">getDetails()</text><line style="stroke: #A80036; stroke-width: 1.0; stroke-dasharray: 2.0,2.0;" x1="746.5" x2="988" y1="388.5156" y2="388.5156"/><polygon fill="#A80036" points="753.5,384.5156,743.5,388.5156,753.5,392.5156,749.5,388.5156" style="stroke: #A80036; stroke-width: 1.0;"/><text fill="#000000" font-size="13" lengthAdjust="spacingAndGlyphs" textLength="88" x="758.5" y="383.5156">detailsVehicule</text><line style="stroke: #A80036; stroke-width: 1.0; stroke-dasharray: 2.0,2.0;" x1="274.5" x2="740.5" y1="418.8672" y2="418.8672"/><polygon fill="#A80036" points="281.5,414.8672,271.5,418.8672,281.5,422.8672,277.5,418.8672" style="stroke: #A80036; stroke-width: 1.0;"/><text fill="#000000" font-size="13" lengthAdjust="spacingAndGlyphs" textLength="88" x="286.5" y="413.8672">detailsVehicule</text><line style="stroke: #A80036; stroke-width: 1.0; stroke-dasharray: 2.0,2.0;" x1="56.5" x2="268.5" y1="449.2188" y2="449.2188"/><polygon fill="#A80036" points="63.5,445.2188,53.5,449.2188,63.5,453.2188,59.5,449.2188" style="stroke: #A80036; stroke-width: 1.0;"/><text fill="#000000" font-size="13" lengthAdjust="spacingAndGlyphs" textLength="88" x="68.5" y="444.2188">detailsVehicule</text><line style="stroke: #A80036; stroke-width: 1.0;" x1="51.5" x2="263.5" y1="479.5703" y2="479.5703"/><polygon fill="#A80036" points="257.5,475.5703,267.5,479.5703,257.5,483.5703,261.5,479.5703" style="stroke: #A80036; stroke-width: 1.0;"/><text fill="#000000" font-size="13" lengthAdjust="spacingAndGlyphs" textLength="137" x="58.5" y="474.5703">saisieDossierAccident()</text><line style="stroke: #A80036; stroke-width: 1.0;" x1="269.5" x2="329" y1="509.9219" y2="509.9219"/><polygon fill="#A80036" points="323,505.9219,333,509.9219,323,513.9219,327,509.9219" style="stroke: #A80036; stroke-width: 1.0;"/><text fill="#000000" font-size="13" lengthAdjust="spacingAndGlyphs" textLength="31" x="276.5" y="504.9219">new()</text><rect fill="#FEFECE" filter="url(#f1)" height="46.7031" style="stroke: #A80036; stroke-width: 1.5;" width="107" x="335" y="487.9219"/><text fill="#000000" font-size="13" font-style="italic" lengthAdjust="spacingAndGlyphs" textLength="93" x="342" y="507.9219">&lt;&lt; boundary &gt;&gt;</text><text fill="#000000" font-size="13" lengthAdjust="spacingAndGlyphs" textLength="46" x="365.5" y="524.2734">DlgSDA</text><line style="stroke: #A80036; stroke-width: 1.0;" x1="390.5" x2="580" y1="571.625" y2="571.625"/><polygon fill="#A80036" points="574,567.625,584,571.625,574,575.625,578,571.625" style="stroke: #A80036; stroke-width: 1.0;"/><text fill="#000000" font-size="13" lengthAdjust="spacingAndGlyphs" textLength="31" x="397.5" y="566.625">new()</text><rect fill="#FEFECE" filter="url(#f1)" height="46.7031" style="stroke: #A80036; stroke-width: 1.5;" width="93" x="586" y="549.625"/><text fill="#000000" font-size="13" font-style="italic" lengthAdjust="spacingAndGlyphs" textLength="79" x="593" y="569.625">&lt;&lt; control &gt;&gt;</text><text fill="#000000" font-size="13" lengthAdjust="spacingAndGlyphs" textLength="47" x="609" y="585.9766">CtrlSDA</text><line style="stroke: #A80036; stroke-width: 1.0;" x1="634.5" x2="1057.5" y1="633.3281" y2="633.3281"/><polygon fill="#A80036" points="1051.5,629.3281,1061.5,633.3281,1051.5,637.3281,1055.5,633.3281" style="stroke: #A80036; stroke-width: 1.0;"/><text fill="#000000" font-size="13" lengthAdjust="spacingAndGlyphs" textLength="31" x="641.5" y="628.3281">new()</text><rect fill="#FEFECE" filter="url(#f1)" height="30.3516" style="stroke: #A80036; stroke-width: 1.5;" width="109" x="1063.5" y="611.3281"/><text fill="#000000" font-size="13" lengthAdjust="spacingAndGlyphs" textLength="95" x="1070.5" y="631.3281">DossierAccident</text><line style="stroke: #A80036; stroke-width: 1.0;" x1="634.5" x2="1114" y1="678.6797" y2="678.6797"/><polygon fill="#A80036" points="1108,674.6797,1118,678.6797,1108,682.6797,1112,678.6797" style="stroke: #A80036; stroke-width: 1.0;"/><text fill="#000000" font-size="13" lengthAdjust="spacingAndGlyphs" textLength="126" x="641.5" y="673.6797">setVehicule(numImm)</text><line style="stroke: #A80036; stroke-width: 1.0;" x1="390.5" x2="628.5" y1="709.0313" y2="709.0313"/><polygon fill="#A80036" points="622.5,705.0313,632.5,709.0313,622.5,713.0313,626.5,709.0313" style="stroke: #A80036; stroke-width: 1.0;"/><text fill="#000000" font-size="13" lengthAdjust="spacingAndGlyphs" textLength="92" x="397.5" y="704.0313">getListExperts()</text><line style="stroke: #A80036; stroke-width: 1.0;" x1="634.5" x2="890.5" y1="739.3828" y2="739.3828"/><polygon fill="#A80036" points="884.5,735.3828,894.5,739.3828,884.5,743.3828,888.5,739.3828" style="stroke: #A80036; stroke-width: 1.0;"/><text fill="#000000" font-size="13" lengthAdjust="spacingAndGlyphs" textLength="84" x="641.5" y="734.3828">getListExperts</text><line style="stroke: #A80036; stroke-width: 1.0; stroke-dasharray: 2.0,2.0;" x1="639.5" x2="895.5" y1="769.7344" y2="769.7344"/><polygon fill="#A80036" points="646.5,765.7344,636.5,769.7344,646.5,773.7344,642.5,769.7344" style="stroke: #A80036; stroke-width: 1.0;"/><text fill="#000000" font-size="13" lengthAdjust="spacingAndGlyphs" textLength="69" x="651.5" y="764.7344">listeExperts</text><line style="stroke: #A80036; stroke-width: 1.0; stroke-dasharray: 2.0,2.0;" x1="395.5" x2="633.5" y1="800.0859" y2="800.0859"/><polygon fill="#A80036" points="402.5,796.0859,392.5,800.0859,402.5,804.0859,398.5,800.0859" style="stroke: #A80036; stroke-width: 1.0;"/><text fill="#000000" font-size="13" lengthAdjust="spacingAndGlyphs" textLength="69" x="407.5" y="795.0859">listeExperts</text><line style="stroke: #A80036; stroke-width: 1.0; stroke-dasharray: 2.0,2.0;" x1="56.5" x2="389.5" y1="830.4375" y2="830.4375"/><polygon fill="#A80036" points="63.5,826.4375,53.5,830.4375,63.5,834.4375,59.5,830.4375" style="stroke: #A80036; stroke-width: 1.0;"/><text fill="#000000" font-size="13" lengthAdjust="spacingAndGlyphs" textLength="73" x="68.5" y="825.4375">ListeExperts</text><line style="stroke: #A80036; stroke-width: 1.0;" x1="51.5" x2="384.5" y1="860.7891" y2="860.7891"/><polygon fill="#A80036" points="378.5,856.7891,388.5,860.7891,378.5,864.7891,382.5,860.7891" style="stroke: #A80036; stroke-width: 1.0;"/><text fill="#000000" font-size="13" lengthAdjust="spacingAndGlyphs" textLength="105" x="58.5" y="855.7891">choisirExpert(exp)</text><line style="stroke: #A80036; stroke-width: 1.0;" x1="390.5" x2="628.5" y1="891.1406" y2="891.1406"/><polygon fill="#A80036" points="622.5,887.1406,632.5,891.1406,622.5,895.1406,626.5,891.1406" style="stroke: #A80036; stroke-width: 1.0;"/><text fill="#000000" font-size="13" lengthAdjust="spacingAndGlyphs" textLength="105" x="397.5" y="886.1406">choisirExpert(exp)</text><line style="stroke: #A80036; stroke-width: 1.0;" x1="634.5" x2="1114" y1="921.4922" y2="921.4922"/><polygon fill="#A80036" points="1108,917.4922,1118,921.4922,1108,925.4922,1112,921.4922" style="stroke: #A80036; stroke-width: 1.0;"/><text fill="#000000" font-size="13" lengthAdjust="spacingAndGlyphs" textLength="85" x="641.5" y="916.4922">setExpert(exp)</text><line style="stroke: #A80036; stroke-width: 1.0;" x1="51.5" x2="384.5" y1="951.8438" y2="951.8438"/><polygon fill="#A80036" points="378.5,947.8438,388.5,951.8438,378.5,955.8438,382.5,951.8438" style="stroke: #A80036; stroke-width: 1.0;"/><text fill="#000000" font-size="13" lengthAdjust="spacingAndGlyphs" textLength="220" x="58.5" y="946.8438">detailsAccident(dateAcc, dateOuv, ...)</text><line style="stroke: #A80036; stroke-width: 1.0;" x1="390.5" x2="628.5" y1="982.1953" y2="982.1953"/><polygon fill="#A80036" points="622.5,978.1953,632.5,982.1953,622.5,986.1953,626.5,982.1953" style="stroke: #A80036; stroke-width: 1.0;"/><text fill="#000000" font-size="13" lengthAdjust="spacingAndGlyphs" textLength="220" x="397.5" y="977.1953">detailsAccident(dateAcc, dateOuv, ...)</text><line style="stroke: #A80036; stroke-width: 1.0;" x1="634.5" x2="1114" y1="1012.5469" y2="1012.5469"/><polygon fill="#A80036" points="1108,1008.5469,1118,1012.5469,1108,1016.5469,1112,1012.5469" style="stroke: #A80036; stroke-width: 1.0;"/><text fill="#000000" font-size="13" lengthAdjust="spacingAndGlyphs" textLength="240" x="641.5" y="1007.5469">setDetailsAccident(dateAcc, dateOuv, ...)</text><rect fill="none" height="249.8125" style="stroke: #000000; stroke-width: 2.0;" width="1309.5" x="10" y="1027.8984"/><polygon fill="#EEEEEE" points="10,1027.8984,83,1027.8984,83,1035.8984,73,1045.8984,10,1045.8984,10,1027.8984" style="stroke: #000000; stroke-width: 2.0;"/><text fill="#000000" font-size="13" font-weight="bold" lengthAdjust="spacingAndGlyphs" textLength="28" x="25" y="1041.8984">loop</text><text fill="#000000" font-size="11" font-weight="bold" lengthAdjust="spacingAndGlyphs" textLength="51" x="98" y="1040.8984">[nb tiers]</text><line style="stroke: #A80036; stroke-width: 1.0;" x1="51.5" x2="384.5" y1="1068.25" y2="1068.25"/><polygon fill="#A80036" points="378.5,1064.25,388.5,1068.25,378.5,1072.25,382.5,1068.25" style="stroke: #A80036; stroke-width: 1.0;"/><text fill="#000000" font-size="13" lengthAdjust="spacingAndGlyphs" textLength="92" x="58.5" y="1063.25">saisirTiers(num)</text><line style="stroke: #A80036; stroke-width: 1.0;" x1="390.5" x2="628.5" y1="1098.6016" y2="1098.6016"/><polygon fill="#A80036" points="622.5,1094.6016,632.5,1098.6016,622.5,1102.6016,626.5,1098.6016" style="stroke: #A80036; stroke-width: 1.0;"/><text fill="#000000" font-size="13" lengthAdjust="spacingAndGlyphs" textLength="92" x="397.5" y="1093.6016">saisirTiers(num)</text><line style="stroke: #A80036; stroke-width: 1.0;" x1="634.5" x2="890.5" y1="1128.9531" y2="1128.9531"/><polygon fill="#A80036" points="884.5,1124.9531,894.5,1128.9531,884.5,1132.9531,888.5,1128.9531" style="stroke: #A80036; stroke-width: 1.0;"/><text fill="#000000" font-size="13" lengthAdjust="spacingAndGlyphs" textLength="148" x="641.5" y="1123.9531">tiers connu = exist?(num)</text><rect fill="none" height="126.4063" style="stroke: #000000; stroke-width: 2.0;" width="733.5" x="576" y="1144.3047"/><polygon fill="#EEEEEE" points="576,1144.3047,637,1144.3047,637,1152.3047,627,1162.3047,576,1162.3047,576,1144.3047" style="stroke: #000000; stroke-width: 2.0;"/><text fill="#000000" font-size="13" font-weight="bold" lengthAdjust="spacingAndGlyphs" textLength="16" x="591" y="1158.3047">alt</text><text fill="#000000" font-size="11" font-weight="bold" lengthAdjust="spacingAndGlyphs" textLength="71" x="652" y="1157.3047">[tiers connu]</text><line style="stroke: #A80036; stroke-width: 1.0;" x1="634.5" x2="1114" y1="1184.6563" y2="1184.6563"/><polygon fill="#A80036" points="1108,1180.6563,1118,1184.6563,1108,1188.6563,1112,1184.6563" style="stroke: #A80036; stroke-width: 1.0;"/><text fill="#000000" font-size="13" lengthAdjust="spacingAndGlyphs" textLength="79" x="641.5" y="1179.6563">setTiers(num)</text><line style="stroke: #000000; stroke-width: 1.0; stroke-dasharray: 2.0,2.0;" x1="576" x2="1309.5" y1="1194.0078" y2="1194.0078"/><line style="stroke: #A80036; stroke-width: 1.0;" x1="634.5" x2="1180.5" y1="1217.0078" y2="1217.0078"/><polygon fill="#A80036" points="1174.5,1213.0078,1184.5,1217.0078,1174.5,1221.0078,1178.5,1217.0078" style="stroke: #A80036; stroke-width: 1.0;"/><text fill="#000000" font-size="13" lengthAdjust="spacingAndGlyphs" textLength="72" x="641.5" y="1212.0078">num = new()</text><rect fill="#FEFECE" filter="url(#f1)" height="30.3516" style="stroke: #A80036; stroke-width: 1.5;" width="109" x="1186.5" y="1195.0078"/><text fill="#000000" font-size="13" lengthAdjust="spacingAndGlyphs" textLength="95" x="1193.5" y="1215.0078">VehiculeExterne</text><line style="stroke: #A80036; stroke-width: 1.0;" x1="634.5" x2="1114" y1="1262.3594" y2="1262.3594"/><polygon fill="#A80036" points="1108,1258.3594,1118,1262.3594,1108,1266.3594,1112,1262.3594" style="stroke: #A80036; stroke-width: 1.0;"/><text fill="#000000" font-size="13" lengthAdjust="spacingAndGlyphs" textLength="79" x="641.5" y="1257.3594">setTiers(num)</text><line style="stroke: #A80036; stroke-width: 1.0; stroke-dasharray: 2.0,2.0;" x1="395.5" x2="633.5" y1="1306.7109" y2="1306.7109"/><polygon fill="#A80036" points="402.5,1302.7109,392.5,1306.7109,402.5,1310.7109,398.5,1306.7109" style="stroke: #A80036; stroke-width: 1.0;"/><text fill="#000000" font-size="13" lengthAdjust="spacingAndGlyphs" textLength="133" x="407.5" y="1301.7109">detailsDossierAccident</text><line style="stroke: #A80036; stroke-width: 1.0; stroke-dasharray: 2.0,2.0;" x1="56.5" x2="389.5" y1="1337.0625" y2="1337.0625"/><polygon fill="#A80036" points="63.5,1333.0625,53.5,1337.0625,63.5,1341.0625,59.5,1337.0625" style="stroke: #A80036; stroke-width: 1.0;"/><text fill="#000000" font-size="13" lengthAdjust="spacingAndGlyphs" textLength="133" x="68.5" y="1332.0625">detailsDossierAccident</text><line style="stroke: #A80036; stroke-width: 1.0;" x1="51.5" x2="384.5" y1="1367.4141" y2="1367.4141"/><polygon fill="#A80036" points="378.5,1363.4141,388.5,1367.4141,378.5,1371.4141,382.5,1367.4141" style="stroke: #A80036; stroke-width: 1.0;"/><text fill="#000000" font-size="13" lengthAdjust="spacingAndGlyphs" textLength="88" x="58.5" y="1362.4141">validerDossier()</text></g></svg>