<?xml version="1.0" encoding="UTF-8"?>
<svg xmlns="http://www.w3.org/2000/svg" xmlns:xlink="http://www.w3.org/1999/xlink" fill-opacity="1" color-rendering="auto" color-interpolation="auto" stroke="black" text-rendering="auto" stroke-linecap="square" width="232" stroke-miterlimit="10" stroke-opacity="1" shape-rendering="auto" fill="black" stroke-dasharray="none" font-weight="normal" stroke-width="1" height="169" font-family="'Dialog'" font-style="normal" stroke-linejoin="miter" font-size="12" stroke-dashoffset="0" image-rendering="auto">
  <!--Generated by ySVG-->
  <defs id="genericDefs"/>
  <g>
    <defs id="defs1">
      <clipPath clipPathUnits="userSpaceOnUse" id="clipPath1">
        <path d="M0 0 L232 0 L232 169 L0 169 L0 0 Z"/>
      </clipPath>
      <clipPath clipPathUnits="userSpaceOnUse" id="clipPath2">
        <path d="M159 61 L391 61 L391 230 L159 230 L159 61 Z"/>
      </clipPath>
    </defs>
    <g fill="white" transform="translate(-159,-61)" stroke="white">
      <rect x="159" width="232" height="169" y="61" clip-path="url(#clipPath2)" stroke="none"/>
    </g>
    <g stroke-miterlimit="1.45" font-family="sans-serif" transform="matrix(1,0,0,1,-159,-61)" stroke-linecap="butt">
      <text x="203.5049" xml:space="preserve" y="109.6016" clip-path="url(#clipPath2)" stroke="none">Opérations</text>
      <circle fill="none" r="61.5" clip-path="url(#clipPath2)" cx="235.5" cy="153.5"/>
    </g>
    <g fill="rgb(255,204,153)" transform="matrix(1,0,0,1,-159,-61)" stroke="rgb(255,204,153)">
      <circle r="37.5" clip-path="url(#clipPath2)" cx="235.5" cy="153.5" stroke="none"/>
    </g>
    <g stroke-miterlimit="1.45" font-family="sans-serif" transform="matrix(1,0,0,1,-159,-61)" stroke-linecap="butt">
      <text x="209.8799" xml:space="preserve" y="158.0352" clip-path="url(#clipPath2)" stroke="none">Attributs</text>
      <circle fill="none" r="37.5" clip-path="url(#clipPath2)" cx="235.5" cy="153.5"/>
      <text x="322.9746" xml:space="preserve" y="95.5352" clip-path="url(#clipPath2)" stroke="none">Message</text>
      <path fill="none" d="M342.6117 106 L340.7734 111.1172 L331.5938 127.7188 L320.4609 140.8047 L307.375 150.375 L304.4274 151.5617" clip-path="url(#clipPath2)"/>
      <path d="M297.0063 154.5494 L310.0053 154.706 L305.3551 151.1882 L306.2707 145.4296 Z" clip-path="url(#clipPath2)" stroke="none"/>
    </g>
  </g>
</svg>
