<?xml version="1.0" encoding="UTF-8"?>
<svg xmlns="http://www.w3.org/2000/svg" xmlns:xlink="http://www.w3.org/1999/xlink" fill-opacity="1" color-rendering="auto" color-interpolation="auto" stroke="black" text-rendering="auto" stroke-linecap="square" width="463" stroke-miterlimit="10" stroke-opacity="1" shape-rendering="auto" fill="black" stroke-dasharray="none" font-weight="normal" stroke-width="1" height="147" font-family="'Dialog'" font-style="normal" stroke-linejoin="miter" font-size="12" stroke-dashoffset="0" image-rendering="auto">
  <!--Generated by ySVG-->
  <defs id="genericDefs"/>
  <g>
    <defs id="defs1">
      <clipPath clipPathUnits="userSpaceOnUse" id="clipPath1">
        <path d="M0 0 L463 0 L463 147 L0 147 L0 0 Z"/>
      </clipPath>
      <clipPath clipPathUnits="userSpaceOnUse" id="clipPath2">
        <path d="M-19 -83 L444 -83 L444 64 L-19 64 L-19 -83 Z"/>
      </clipPath>
    </defs>
    <g fill="white" transform="translate(19,83)" stroke="white">
      <rect x="-19" width="463" height="147" y="-83" clip-path="url(#clipPath2)" stroke="none"/>
    </g>
    <g stroke-linecap="butt" transform="matrix(1,0,0,1,19,83)" stroke-miterlimit="1.45">
      <path fill="none" d="M185 -50.8685 L315.5 -50.8685 L315.5 48.1315 L185 48.1315 Z" clip-path="url(#clipPath2)"/>
      <text x="215.3955" xml:space="preserve" y="-3.8997" font-family="sans-serif" clip-path="url(#clipPath2)" stroke="none">&lt;&lt;block&gt;&gt;</text>
      <text x="227.3516" xml:space="preserve" y="10.2331" font-family="sans-serif" clip-path="url(#clipPath2)" stroke="none">unBlock</text>
    </g>
    <g stroke-miterlimit="1.45" font-family="sans-serif" transform="matrix(1,0,0,1,19,83)" stroke-linecap="butt">
      <text x="324.043" xml:space="preserve" y="-53.3997" clip-path="url(#clipPath2)" stroke="none">providedInterface</text>
    </g>
    <g stroke-linecap="butt" transform="matrix(1,0,0,1,19,83)" stroke-miterlimit="1.45">
      <circle fill="none" r="15" clip-path="url(#clipPath2)" cx="375.125" cy="-29.8685"/>
      <text x="325.0889" xml:space="preserve" y="37.7331" font-family="sans-serif" clip-path="url(#clipPath2)" stroke="none">requiredInterface</text>
      <circle fill="none" r="15" clip-path="url(#clipPath2)" cx="375.125" cy="5.1315"/>
    </g>
    <g stroke-linecap="butt" transform="matrix(1,0,0,1,19,83)" stroke-miterlimit="1.45">
      <path fill="none" d="M-4 -50.8685 L126.5 -50.8685 L126.5 -7.8685 L-4 -7.8685 Z" clip-path="url(#clipPath2)"/>
      <text x="16.7363" xml:space="preserve" y="-31.8997" font-family="sans-serif" clip-path="url(#clipPath2)" stroke="none">&lt;&lt;interface&gt;&gt;</text>
      <text x="10.168" xml:space="preserve" y="-17.7669" font-family="sans-serif" clip-path="url(#clipPath2)" stroke="none">providedInterface</text>
    </g>
    <g stroke-linecap="butt" transform="matrix(1,0,0,1,19,83)" stroke-miterlimit="1.45">
      <path fill="none" d="M-4 -0.8896 L126.5 -0.8896 L126.5 42.1104 L-4 42.1104 Z" clip-path="url(#clipPath2)"/>
      <text x="16.7363" xml:space="preserve" y="18.0791" font-family="sans-serif" clip-path="url(#clipPath2)" stroke="none">&lt;&lt;interface&gt;&gt;</text>
      <text x="11.2139" xml:space="preserve" y="32.2119" font-family="sans-serif" clip-path="url(#clipPath2)" stroke="none">requiredInterface</text>
    </g>
    <g stroke-linecap="butt" transform="matrix(1,0,0,1,19,83)" stroke-miterlimit="1.45">
      <path fill="none" d="M360.125 -29.8685 L345.3242 -29.8685 L345.3242 -29.953 L315.5234 -29.953" clip-path="url(#clipPath2)"/>
      <path fill="none" d="M315.5228 5.1315 L360.125 5.1315" clip-path="url(#clipPath2)"/>
      <path fill="none" stroke-dasharray="6,2" d="M185.0136 -29.3685 L141.4977 -29.3685" clip-path="url(#clipPath2)"/>
      <path fill="white" stroke-dasharray="6,2" d="M126.4977 -29.3685 L142.4977 -23.3685 L142.4977 -35.3685 Z" clip-path="url(#clipPath2)" stroke="none"/>
      <path fill="none" d="M126.4977 -29.3685 L142.4977 -23.3685 L142.4977 -35.3685 Z" clip-path="url(#clipPath2)"/>
      <path fill="none" stroke-dasharray="6,2" d="M184.9583 20.6104 L131.517 20.6104" clip-path="url(#clipPath2)"/>
      <path stroke-dasharray="6,2" d="M127.517 20.6104 L139.517 26.6104 L127.517 20.6104 L139.517 14.6104 Z" clip-path="url(#clipPath2)" stroke="none"/>
      <path fill="none" d="M127.517 20.6104 L139.517 26.6104 L127.517 20.6104 L139.517 14.6104 Z" stroke-miterlimit="10" clip-path="url(#clipPath2)" stroke-linecap="square"/>
    </g>
  </g>
</svg>
